<svg width="1135" height="758" xmlns="http://www.w3.org/2000/svg" xmlns:xlink="http://www.w3.org/1999/xlink" overflow="hidden"><defs><clipPath id="clip0"><rect x="1" y="-1" width="1135" height="758"></rect></clipPath></defs><g clip-path="url(#clip0)" transform="translate(-1 1)"><path d="M1 0 1135 0 1135 756 1 756Z" fill="#FFFFFF" fill-rule="evenodd"></path><path d="M831.914 655.958 803.41 627.455 848.839 582.026 877.342 610.53Z" fill-rule="evenodd"></path><path d="M899.635 588.258 871.131 559.754 916.559 514.325 945.063 542.829Z" fill-rule="evenodd"></path><path d="M871.177 695.142 842.673 666.638 888.101 621.21 916.605 649.714Z" fill-rule="evenodd"></path><path d="M938.876 627.438 910.372 598.934 955.799 553.507 984.303 582.011Z" fill-rule="evenodd"></path><path d="M792.723 616.765 764.22 588.262 809.648 542.834 838.151 571.337Z" fill-rule="evenodd"></path><path d="M860.442 549.063 831.938 520.559 877.365 475.132 905.869 503.636Z" fill-rule="evenodd"></path><path d="M339.133 629.971 310.631 658.473 197.507 545.348 226.009 516.846Z" fill-rule="evenodd"></path><path d="M378.328 590.784 349.825 619.286 304.398 573.859 332.9 545.356Z" fill-rule="evenodd"></path><path d="M310.633 523.074 282.13 551.577 236.702 506.149 265.205 477.645Z" fill-rule="evenodd"></path><path d="M299.943 669.163 271.438 697.668 226.01 652.24 254.515 623.735Z" fill-rule="evenodd"></path><path d="M232.245 601.465 203.74 629.97 158.312 584.542 186.817 556.037Z" fill-rule="evenodd"></path><path d="M933.735 214.279 905.231 242.782 859.804 197.355 888.307 168.852Z" fill-rule="evenodd"></path><path d="M866.037 146.578 837.534 175.082 792.107 129.654 820.61 101.151Z" fill-rule="evenodd"></path><path d="M972.906 175.052 944.403 203.555 831.278 90.431 859.781 61.9279Z" fill-rule="evenodd"></path><path d="M894.54 253.47 866.037 281.973 752.912 168.848 781.416 140.345Z" fill-rule="evenodd"></path><path d="M226.019 242.764 197.515 214.26 310.638 101.136 339.142 129.64Z" fill-rule="evenodd"></path><path d="M265.198 281.961 236.694 253.457 349.818 140.333 378.322 168.837Z" fill-rule="evenodd"></path><path d="M186.819 203.574 158.315 175.07 271.44 61.946 299.944 90.45Z" fill-rule="evenodd"></path><path d="M438 292.134C485.406 220.195 582.088 200.35 653.946 247.809 725.803 295.269 745.625 392.061 698.22 464" fill="#DA251D" fill-rule="evenodd"></path><path d="M699 463.865C651.429 535.804 554.408 555.65 482.299 508.191 410.191 460.732 390.299 363.939 437.87 292" fill="#29166F" fill-rule="evenodd"></path><path d="M581 335C581 378.078 546.078 413 503 413 459.922 413 425 378.078 425 335 425 291.922 459.922 257 503 257 546.078 257 581 291.922 581 335Z" fill="#DA251D" fill-rule="evenodd"></path><path d="M711 421C711 464.078 676.078 499 633 499 589.922 499 555 464.078 555 421 555 377.922 589.922 343 633 343 676.078 343 711 377.922 711 421Z" fill="#29166F" fill-rule="evenodd"></path></g></svg>